<?xml version="1.0" standalone="no"?>
<!DOCTYPE svg PUBLIC "-//W3C//DTD SVG 20010904//EN"
 "http://www.w3.org/TR/2001/REC-SVG-20010904/DTD/svg10.dtd">
<svg version="1.0" xmlns="http://www.w3.org/2000/svg"
 width="451.000000pt" height="127.000000pt" viewBox="0 0 451.000000 127.000000"
 preserveAspectRatio="xMidYMid meet">

<g transform="translate(0.000000,127.000000) scale(0.100000,-0.100000)"
fill="#000000" stroke="none">
<path d="M2301 1104 c-82 -22 -149 -62 -219 -131 -211 -208 -189 -567 45 -745
305 -230 737 -25 769 365 13 150 -35 278 -143 386 -126 125 -287 170 -452 125z
m301 -82 c206 -100 295 -370 193 -587 -111 -234 -402 -318 -614 -177 -301 200
-227 672 124 789 25 8 75 12 135 10 83 -3 103 -7 162 -35z"/>
<path d="M2308 1001 c-31 -10 -72 -28 -91 -40 -54 -33 -126 -116 -155 -179
-24 -51 -27 -69 -27 -167 0 -100 2 -115 28 -167 60 -122 160 -198 291 -221
164 -28 339 70 414 230 24 52 27 70 27 168 0 105 -2 114 -33 177 -83 168 -282
256 -454 199z"/>
<path d="M76 1062 c-11 -11 -6 -97 20 -327 14 -127 31 -235 37 -241 7 -7 65
-14 130 -18 113 -6 119 -5 124 14 7 25 9 25 40 0 14 -11 40 -24 59 -29 70 -19
118 17 132 99 l7 45 13 -42 c7 -23 28 -59 47 -79 33 -35 38 -36 80 -31 l45 7
0 -35 0 -35 -57 5 c-32 3 -168 10 -303 15 -135 6 -275 13 -312 16 -64 6 -68 5
-68 -14 0 -23 7 -23 496 -46 l248 -11 6 -25 c5 -22 12 -25 53 -28 45 -3 47 -2
47 22 0 32 -29 31 435 11 448 -19 535 -19 535 -1 0 21 -31 24 -270 31 -342 9
-694 26 -701 33 -4 4 -12 97 -18 207 -16 274 -11 257 -74 254 -29 -1 -64 3
-79 9 -43 18 -84 -2 -110 -52 -17 -32 -21 -58 -21 -124 l0 -83 -18 41 c-11 24
-31 48 -50 58 -17 9 -41 25 -53 34 -19 15 -19 17 -3 18 10 0 28 -7 42 -16 22
-14 24 -14 34 4 6 11 12 34 13 52 4 42 -33 71 -99 77 -46 5 -51 3 -76 -27 -22
-26 -27 -41 -27 -89 0 -71 26 -115 88 -149 41 -23 55 -42 30 -42 -7 0 -26 9
-43 20 -39 26 -41 25 -53 -7 -10 -27 -11 -27 -17 -7 -7 24 -45 34 -127 34 -46
0 -47 1 -54 35 -3 20 -3 39 1 43 4 4 30 7 58 7 l52 0 -1 63 c-1 75 -8 82 -80
82 -50 0 -52 1 -58 31 -11 58 -12 58 77 61 l82 3 -2 54 c-2 30 -6 58 -10 62
-10 8 -239 19 -247 11z m703 -355 c18 -22 24 -73 12 -96 -23 -41 -58 -19 -68
43 -8 53 27 87 56 53z"/>
<path d="M1282 1020 c0 -14 2 -19 5 -12 2 6 2 18 0 25 -3 6 -5 1 -5 -13z"/>
<path d="M3027 1013 c-14 -23 -62 -607 -51 -624 3 -5 29 -9 59 -9 l53 0 6 38
c3 20 8 72 12 115 5 65 9 77 23 75 12 -2 22 -32 40 -113 13 -61 29 -113 35
-117 16 -11 114 -10 121 2 3 5 -8 64 -24 131 l-31 121 29 29 c40 40 56 90 56
179 0 82 -18 128 -59 155 -29 19 -259 34 -269 18z m181 -155 c20 -20 15 -85
-9 -109 -25 -25 -74 -23 -73 4 0 9 1 40 2 67 2 50 2 50 35 50 18 0 38 -5 45
-12z"/>
<path d="M3772 997 c-6 -7 -14 -40 -18 -75 -7 -68 -12 -62 59 -66 41 -3 48 5
57 70 7 49 5 61 -8 72 -21 16 -77 16 -90 -1z"/>
<path d="M910 808 c0 -86 19 -284 29 -310 21 -55 74 -75 116 -45 15 12 23 12
46 0 16 -8 39 -13 51 -11 l23 3 -4 190 c-1 105 -7 198 -13 208 -7 14 -19 17
-51 15 l-42 -3 4 -136 c2 -98 0 -139 -9 -144 -22 -13 -29 9 -35 115 -10 177
-8 170 -65 170 l-50 0 0 -52z"/>
<path d="M1199 849 c-11 -6 5 -380 16 -400 4 -5 27 -9 52 -9 l45 0 -7 198 c-4
108 -9 200 -11 203 -5 10 -83 16 -95 8z"/>
<path d="M1480 853 c-8 -3 -22 -12 -31 -20 -14 -12 -17 -12 -23 2 -4 12 -17
15 -53 13 l-48 -3 3 -135 c1 -74 5 -165 8 -202 6 -67 6 -67 40 -74 63 -12 64
-9 64 140 0 126 7 162 28 141 4 -4 12 -68 17 -143 l10 -137 48 -3 47 -3 0 163
c0 90 -5 180 -10 200 -15 54 -55 78 -100 61z"/>
<path d="M1675 842 c-46 -16 -50 -20 -49 -47 1 -16 7 -43 13 -58 9 -24 14 -26
30 -17 44 23 111 7 111 -27 0 -10 -5 -11 -19 -3 -50 26 -111 -1 -135 -60 -44
-112 11 -232 99 -215 17 4 60 6 98 5 l67 -1 0 149 c0 85 -5 164 -11 183 -16
47 -56 87 -98 99 -46 13 -46 12 -106 -8z m105 -262 c23 -42 -30 -81 -60 -45
-7 8 -10 25 -6 40 8 31 50 35 66 5z"/>
<path d="M3473 800 c-131 -67 -169 -331 -59 -418 89 -70 212 4 246 149 16 64
8 174 -14 216 -34 66 -105 87 -173 53z m76 -171 c17 -31 9 -71 -20 -100 -25
-25 -40 -21 -57 15 -22 44 15 124 53 112 6 -1 16 -14 24 -27z"/>
<path d="M4002 802 c-101 -30 -179 -203 -150 -336 29 -135 165 -159 248 -44
87 120 79 335 -14 373 -38 16 -48 17 -84 7z m36 -164 c20 -20 15 -95 -8 -118
-37 -37 -70 -18 -70 41 0 37 31 89 54 89 6 0 17 -5 24 -12z"/>
<path d="M3735 778 c-2 -13 -16 -108 -29 -211 -22 -165 -28 -191 -50 -217 -13
-16 -26 -35 -28 -41 -3 -9 -82 -9 -333 -2 -321 10 -374 8 -347 -19 10 -10 359
-27 549 -28 l122 0 3 -28 c3 -23 8 -27 39 -30 27 -2 44 3 67 22 30 26 31 26
220 26 117 0 193 4 197 10 10 17 -12 20 -190 28 -161 7 -170 8 -169 27 1 11
15 121 33 243 17 123 28 228 25 233 -3 5 -27 9 -54 9 -43 0 -50 -3 -55 -22z"/>
<path d="M82 495 c0 -16 2 -22 5 -12 2 9 2 23 0 30 -3 6 -5 -1 -5 -18z"/>
<path d="M2913 463 c-3 -10 -16 -42 -29 -71 -20 -45 -21 -54 -8 -59 17 -6 56
25 48 39 -3 5 -13 3 -22 -4 -14 -11 -15 -10 -9 5 4 10 7 23 7 28 0 5 7 9 15 9
10 0 15 11 15 35 0 38 -7 45 -17 18z"/>
<path d="M620 456 c0 -10 9 -16 21 -16 24 0 21 23 -4 28 -10 2 -17 -3 -17 -12z"/>
<path d="M1925 390 c-8 -13 -1 -24 14 -19 6 3 7 10 2 18 -6 10 -10 10 -16 1z"/>
<path d="M1926 312 c-8 -14 58 -105 111 -153 164 -147 427 -181 628 -82 98 49
215 158 215 200 0 32 -44 9 -100 -50 -99 -106 -219 -157 -371 -157 -171 0
-318 74 -410 208 -28 39 -60 54 -73 34z"/>
<path d="M857 243 c-15 -14 -6 -24 20 -21 34 4 43 28 11 28 -14 0 -28 -3 -31
-7z"/>
</g>
</svg>
